<svg xmlns="http://www.w3.org/2000/svg" version="1.1" xmlns:xlink="http://www.w3.org/1999/xlink" xmlns:svgjs="http://svgjs.dev/svgjs" viewBox="0 0 800 800"><defs><radialGradient id="ccclaymoji-grad-dark" r="93%" cx="20%" cy="20%">
      <stop offset="70%" stop-color="hsl(351, 100%, 67%)" stop-opacity="0"></stop>
      <stop offset="97%" stop-color="#c61945" stop-opacity="1"></stop>
    </radialGradient><radialGradient id="ccclaymoji-grad-light" r="65%" cx="28%" cy="20%">
    <stop offset="0%" stop-color="#ff8b9e" stop-opacity="0.75"></stop>
    <stop offset="100%" stop-color="hsl(351, 100%, 67%)" stop-opacity="0"></stop>
  </radialGradient><filter id="ccclaymoji-blur" x="-100%" y="-100%" width="400%" height="400%" filterUnits="objectBoundingBox" primitiveUnits="userSpaceOnUse" color-interpolation-filters="sRGB">
	<feGaussianBlur stdDeviation="30" x="0%" y="0%" width="100%" height="100%" in="SourceGraphic" edgeMode="none" result="blur"></feGaussianBlur></filter><filter id="inner-blur" x="-100%" y="-100%" width="400%" height="400%" filterUnits="objectBoundingBox" primitiveUnits="userSpaceOnUse" color-interpolation-filters="sRGB">
	<feGaussianBlur stdDeviation="2" x="0%" y="0%" width="100%" height="100%" in="SourceGraphic" edgeMode="none" result="blur"></feGaussianBlur></filter><filter id="eye-shadow" x="-100%" y="-100%" width="400%" height="400%" filterUnits="objectBoundingBox" primitiveUnits="userSpaceOnUse" color-interpolation-filters="sRGB">
	<feDropShadow stdDeviation="10" dx="10" dy="10" flood-color="#000000" flood-opacity="0.2" x="0%" y="0%" width="100%" height="100%" result="dropShadow"></feDropShadow>
</filter><linearGradient id="eye-light" x1="50%" y1="0%" x2="50%" y2="100%">
      <stop offset="0%" stop-color="#555555" stop-opacity="1"></stop>
      <stop offset="100%" stop-color="hsla(0, 0%, 0%, 1.00)" stop-opacity="0"></stop>
    </linearGradient><linearGradient id="mouth-light" x1="50%" y1="0%" x2="50%" y2="100%">
    <stop offset="0%" stop-color="#ffff93" stop-opacity="1"></stop>
    <stop offset="100%" stop-color="hsla(55, 94%, 54%, 1.00)" stop-opacity="0"></stop>
  </linearGradient><filter id="mouth-shadow" x="-100%" y="-100%" width="400%" height="400%" filterUnits="objectBoundingBox" primitiveUnits="userSpaceOnUse" color-interpolation-filters="sRGB">
	<feDropShadow stdDeviation="10" dx="10" dy="10" flood-color="#c1b400" flood-opacity="0.2" x="0%" y="0%" width="100%" height="100%" result="dropShadow"></feDropShadow>
</filter></defs><g stroke-linecap="round"><path d="M682 449.99998527588554C682 622.5368585912495 572.5368733153639 762.4042979443492 400 762.4042979443492C227.46388679245283 762.4042979443492 118 622.5368585912495 118 449.99998527588554C118 277.46387206833833 227.46388679245283 137.59567260742188 400 137.59567260742188C572.5368733153639 137.59567260742188 682 277.46387206833833 682 449.99998527588554Z " fill="#c61945" opacity="0.25" filter="url(#ccclaymoji-blur)"></path><path d="M682 400.0000138242021C682 582.3680480122364 582.3680341880342 665.931637755826 400 665.931637755826C217.6327692307692 665.931637755826 118 582.3680480122364 118 400.0000138242021C118 217.6327830549713 217.6327692307692 134.06838989257812 400 134.06838989257812C582.3680341880342 134.06838989257812 682 217.6327830549713 682 400.0000138242021Z " fill="hsl(351, 100%, 67%)"></path><path d="M682 400.0000138242021C682 582.3680480122364 582.3680341880342 665.931637755826 400 665.931637755826C217.6327692307692 665.931637755826 118 582.3680480122364 118 400.0000138242021C118 217.6327830549713 217.6327692307692 134.06838989257812 400 134.06838989257812C582.3680341880342 134.06838989257812 682 217.6327830549713 682 400.0000138242021Z " fill="url(#ccclaymoji-grad-dark)"></path><path d="M682 400.0000138242021C682 582.3680480122364 582.3680341880342 665.931637755826 400 665.931637755826C217.6327692307692 665.931637755826 118 582.3680480122364 118 400.0000138242021C118 217.6327830549713 217.6327692307692 134.06838989257812 400 134.06838989257812C582.3680341880342 134.06838989257812 682 217.6327830549713 682 400.0000138242021Z " fill="url(#ccclaymoji-grad-light)"></path><path d="M402 264.5Q430 330.5 454 264.5 " stroke-width="21" stroke="hsla(0, 0%, 0%, 1.00)" fill="none" filter="url(#eye-shadow)"></path><path d="M402 264.5Q430 330.5 454 264.5 " stroke-width="7" stroke="url(#eye-light)" fill="none" filter="url(#inner-blur)"></path><path d="M488.5 262.75Q529.5 331.75 543.5 262.75 " stroke-width="21" stroke="hsla(0, 0%, 0%, 1.00)" fill="none" filter="url(#eye-shadow)"></path><path d="M488.5 262.75Q529.5 331.75 543.5 262.75 " stroke-width="7" stroke="url(#eye-light)" fill="none" filter="url(#inner-blur)"></path><path d="M426.5 516Q466.5 316 575.5 516 " stroke-width="21" stroke="hsla(55, 94%, 54%, 1.00)" fill="none" filter="url(#mouth-shadow)"></path><path d="M426.5 516Q466.5 316 575.5 516 " stroke-width="7" stroke="url(#mouth-light)" fill="none" filter="url(#inner-blur)"></path></g></svg>